<svg width="214" height="51" viewBox="0 0 214 51" fill="none" xmlns="http://www.w3.org/2000/svg">
<path fill-rule="evenodd" clip-rule="evenodd" d="M83 7V30H70.3539V7H83ZM27.4602 14.4441C28.0624 14.4441 28.6603 14.4853 29.2539 14.5677C29.8475 14.6502 30.3852 14.8192 30.8669 15.0747C31.3487 15.3303 31.7358 15.6889 32.0283 16.1505C32.3208 16.6122 32.467 17.214 32.467 17.9559V24.5344C32.467 25.029 32.4971 25.3918 32.5574 25.6226C32.6176 25.8534 32.8198 25.9688 33.1639 25.9688C33.3531 25.9688 33.5768 25.9276 33.8349 25.8452V27.4774C33.4564 27.6918 32.9316 27.7989 32.2606 27.7989C31.6928 27.7989 31.2411 27.6464 30.9056 27.3414C30.5701 27.0364 30.4024 26.5376 30.4024 25.8452C29.8002 26.5376 29.099 27.0364 28.299 27.3414C27.4989 27.6464 26.6343 27.7989 25.7052 27.7989C25.103 27.7989 24.5309 27.733 23.989 27.6011C23.447 27.4692 22.9781 27.2631 22.5824 26.9828C22.1867 26.7025 21.8727 26.3357 21.6404 25.8823C21.4081 25.4289 21.292 24.8806 21.292 24.2376C21.292 23.5122 21.421 22.9186 21.6791 22.457C21.9372 21.9953 22.277 21.6203 22.6985 21.3317C23.1201 21.0432 23.6018 20.8247 24.1438 20.6763C24.6858 20.528 25.2407 20.4043 25.8085 20.3054C26.4107 20.19 26.9827 20.1034 27.5247 20.0457C28.0667 19.988 28.5441 19.9056 28.9571 19.7984C29.37 19.6912 29.6969 19.5346 29.9378 19.3285C30.1787 19.1224 30.2991 18.8215 30.2991 18.4258C30.2991 17.9642 30.2088 17.5932 30.0281 17.3129C29.8475 17.0326 29.6152 16.8183 29.3313 16.6699C29.0474 16.5215 28.7291 16.4226 28.3764 16.3731C28.0237 16.3237 27.6753 16.2989 27.3312 16.2989C26.402 16.2989 25.6278 16.4679 25.0084 16.8059C24.389 17.1439 24.0535 17.7828 24.0019 18.7226H21.8081C21.8426 17.9312 22.0146 17.2634 22.3243 16.7194C22.634 16.1753 23.0469 15.7342 23.5631 15.3962C24.0793 15.0582 24.6686 14.8151 25.331 14.6667C25.9934 14.5183 26.7031 14.4441 27.4602 14.4441ZM54.8172 14.4441C56.0044 14.4441 56.9894 14.679 57.7722 15.1489C58.5551 15.6188 59.1831 16.2165 59.6562 16.9419C60.1294 17.6674 60.4563 18.4588 60.637 19.3161C60.8176 20.1735 60.8908 20.9896 60.8563 21.7645H50.8685C50.8513 22.3251 50.9201 22.8568 51.0749 23.3597C51.2298 23.8625 51.4793 24.3077 51.8234 24.6952C52.1675 25.0826 52.6062 25.3918 53.1396 25.6226C53.673 25.8534 54.301 25.9688 55.0236 25.9688C55.9527 25.9688 56.7141 25.7627 57.3077 25.3505C57.9013 24.9383 58.2927 24.3118 58.482 23.471H60.6499C60.3574 24.9054 59.7122 25.9853 58.7142 26.7108C57.7163 27.4362 56.4603 27.7989 54.9462 27.7989C53.8795 27.7989 52.9547 27.6341 52.1718 27.3043C51.3889 26.9746 50.7308 26.5129 50.1974 25.9194C49.6641 25.3258 49.264 24.6168 48.9974 23.7925C48.7307 22.9681 48.5801 22.0695 48.5457 21.0968C48.5457 20.124 48.7006 19.2337 49.0103 18.4258C49.32 17.6179 49.7544 16.9172 50.3136 16.3237C50.8728 15.7301 51.5352 15.2685 52.3008 14.9387C53.0665 14.609 53.9053 14.4441 54.8172 14.4441ZM76.1349 14.4441C75.55 14.4441 74.9607 14.5142 74.3671 14.6543C73.7735 14.7944 73.2401 15.0088 72.7669 15.2973C72.2938 15.5858 71.9067 15.9609 71.6056 16.4226C71.3045 16.8842 71.1539 17.4366 71.1539 18.0796C71.1539 18.9039 71.369 19.547 71.7991 20.0086C72.2293 20.4703 72.7669 20.8289 73.4122 21.0844C74.0574 21.34 74.7585 21.5378 75.5155 21.678C76.2726 21.8181 76.9737 21.9747 77.6189 22.1479C78.2641 22.321 78.8018 22.5477 79.232 22.828C79.6621 23.1082 79.8772 23.5204 79.8772 24.0645C79.8772 24.4602 79.7739 24.7858 79.5675 25.0414C79.361 25.297 79.0986 25.4907 78.7803 25.6226C78.462 25.7545 78.1136 25.8452 77.7351 25.8946C77.3565 25.9441 76.9952 25.9688 76.6511 25.9688C76.2038 25.9688 75.7693 25.9276 75.3478 25.8452C74.9263 25.7627 74.5477 25.6267 74.2122 25.4371C73.8767 25.2475 73.6057 24.9919 73.3992 24.6704C73.1928 24.3489 73.0809 23.9573 73.0637 23.4957H70.87C70.9044 24.2871 71.0765 24.959 71.3862 25.5113C71.6959 26.0636 72.1088 26.5088 72.625 26.8468C73.1412 27.1848 73.7348 27.428 74.4058 27.5763C75.0768 27.7247 75.7822 27.7989 76.5221 27.7989C77.1931 27.7989 77.8684 27.7371 78.548 27.6134C79.2277 27.4898 79.8385 27.2713 80.3804 26.9581C80.9224 26.6448 81.3612 26.2326 81.6967 25.7215C82.0322 25.2104 82.1999 24.5674 82.1999 23.7925C82.1999 23.1824 82.0752 22.6713 81.8257 22.2591C81.5762 21.847 81.2493 21.5048 80.845 21.2328C80.4407 20.9608 79.9761 20.7423 79.4513 20.5774C78.9266 20.4125 78.3889 20.2724 77.8383 20.157C77.3221 20.0416 76.806 19.9303 76.2898 19.8231C75.7736 19.716 75.3091 19.5841 74.8961 19.4274C74.4832 19.2708 74.1434 19.0729 73.8767 18.8339C73.61 18.5948 73.4767 18.2939 73.4767 17.9312C73.4767 17.6014 73.5627 17.3335 73.7348 17.1274C73.9068 16.9213 74.1305 16.7565 74.4058 16.6328C74.6811 16.5091 74.9865 16.4226 75.322 16.3731C75.6575 16.3237 75.9887 16.2989 76.3156 16.2989C76.6769 16.2989 77.0339 16.336 77.3867 16.4102C77.7394 16.4844 78.062 16.6039 78.3545 16.7688C78.647 16.9337 78.8878 17.1522 79.0771 17.4242C79.2664 17.6962 79.3782 18.0383 79.4126 18.4505H81.6063C81.5547 17.6756 81.3827 17.0285 81.0902 16.5091C80.7977 15.9898 80.4062 15.5776 79.9159 15.2726C79.4255 14.9676 78.862 14.7532 78.2254 14.6296C77.5888 14.5059 76.892 14.4441 76.1349 14.4441ZM14.2721 14.4441C14.9431 14.4441 15.5496 14.5142 16.0916 14.6543C16.6336 14.7944 17.0981 15.0129 17.4852 15.3097C17.8724 15.6065 18.1735 15.9898 18.3885 16.4597C18.6036 16.9296 18.7111 17.4943 18.7111 18.1538V27.5269H16.5174V19.143C16.5174 18.7473 16.483 18.3763 16.4142 18.0301C16.3454 17.6839 16.2163 17.383 16.0271 17.1274C15.8378 16.8719 15.5754 16.6699 15.2399 16.5215C14.9044 16.3731 14.4699 16.2989 13.9366 16.2989C12.8526 16.2989 12.0009 16.5957 11.3815 17.1892C10.7621 17.7828 10.4524 18.5742 10.4524 19.5634V27.5269H8.25871V19.143C8.25871 18.7308 8.21999 18.3516 8.14257 18.0054C8.06514 17.6591 7.9318 17.3582 7.74254 17.1027C7.55327 16.8471 7.29949 16.6493 6.98119 16.5091C6.66288 16.369 6.25425 16.2989 5.75529 16.2989C5.11867 16.2989 4.5724 16.4226 4.11645 16.6699C3.6605 16.9172 3.29058 17.214 3.00669 17.5602C2.72279 17.9065 2.51633 18.2651 2.38728 18.636C2.25824 19.007 2.19372 19.3161 2.19372 19.5634V27.5269H0V14.7409H2.06468V16.6204H2.11629C3.11423 15.1695 4.55088 14.4441 6.42631 14.4441C7.25218 14.4441 8.00062 14.609 8.67164 14.9387C9.34266 15.2685 9.81581 15.829 10.0911 16.6204C10.5385 15.928 11.1277 15.3921 11.859 15.0129C12.5902 14.6337 13.3946 14.4441 14.2721 14.4441ZM38.1965 9.86882V20.3301L44.2873 14.7409H47.2295L41.9387 19.3903L47.6166 27.5269H44.8293L40.2612 20.8495L38.1965 22.6796V27.5269H36.0028V9.86882H38.1965ZM70.07 14.4441V16.6699C69.1925 16.6699 68.444 16.7853 67.8246 17.0161C67.2052 17.247 66.7063 17.5849 66.3277 18.0301C65.9492 18.4753 65.6739 19.0152 65.5019 19.65C65.3298 20.2848 65.2438 21.0143 65.2438 21.8387V27.5269H63.0501V14.7409H65.1147V17.4366H65.1664C65.6997 16.3978 66.3535 15.6312 67.1278 15.1366C67.9021 14.6419 68.8828 14.4111 70.07 14.4441ZM30.2733 20.9237C29.998 21.1215 29.6367 21.2658 29.1894 21.3565C28.742 21.4471 28.2732 21.5213 27.7828 21.579C27.2924 21.6367 26.7978 21.7027 26.2988 21.7769C25.7999 21.8511 25.3525 21.9706 24.9568 22.1355C24.561 22.3004 24.2384 22.5353 23.989 22.8403C23.7395 23.1453 23.6147 23.5616 23.6147 24.0892C23.6147 24.4355 23.6879 24.7281 23.8341 24.9672C23.9804 25.2063 24.1696 25.4 24.4019 25.5484C24.6342 25.6968 24.9052 25.8039 25.2149 25.8699C25.5246 25.9358 25.8515 25.9688 26.1956 25.9688C26.9182 25.9688 27.5376 25.874 28.0538 25.6844C28.57 25.4948 28.9915 25.2557 29.3184 24.9672C29.6453 24.6787 29.8862 24.3654 30.041 24.0274C30.1959 23.6894 30.2733 23.372 30.2733 23.0753V20.9237ZM54.6881 16.2989C54.1203 16.2989 53.6085 16.3937 53.1525 16.5833C52.6966 16.7729 52.3051 17.0326 51.9782 17.3624C51.6513 17.6921 51.3932 18.0754 51.204 18.5124C51.0147 18.9493 50.9029 19.4151 50.8685 19.9097H58.5336C58.4992 19.4151 58.383 18.9452 58.1852 18.5C57.9873 18.0548 57.7206 17.6715 57.3851 17.35C57.0496 17.0285 56.6539 16.7729 56.1979 16.5833C55.742 16.3937 55.2387 16.2989 54.6881 16.2989Z" fill="#FFE600"/>
</svg>
