<svg width="18" height="26" viewBox="0 0 18 26" fill="none" xmlns="http://www.w3.org/2000/svg">
<path d="M17.479 12.964C17.479 15.072 17.2523 16.8967 16.799 18.438C16.3457 19.9793 15.728 21.2543 14.946 22.263C14.164 23.2717 13.246 24.0253 12.192 24.524C11.1493 25.0113 10.033 25.255 8.843 25.255C7.653 25.255 6.53667 25.0113 5.494 24.524C4.45133 24.0253 3.539 23.2717 2.757 22.263C1.975 21.2543 1.35733 19.9793 0.904 18.438C0.462 16.8967 0.241 15.072 0.241 12.964C0.241 10.856 0.462 9.03133 0.904 7.49C1.35733 5.94867 1.975 4.67367 2.757 3.665C3.539 2.65633 4.45133 1.90833 5.494 1.421C6.53667 0.922332 7.653 0.672998 8.843 0.672998C10.033 0.672998 11.1493 0.922332 12.192 1.421C13.246 1.90833 14.164 2.65633 14.946 3.665C15.728 4.67367 16.3457 5.94867 16.799 7.49C17.2523 9.03133 17.479 10.856 17.479 12.964ZM15.779 12.964C15.779 11.0147 15.592 9.34867 15.218 7.966C14.844 6.58333 14.3397 5.45567 13.705 4.583C13.0817 3.699 12.345 3.053 11.495 2.645C10.6563 2.237 9.77233 2.033 8.843 2.033C7.91367 2.033 7.02967 2.237 6.191 2.645C5.35233 3.053 4.61567 3.699 3.981 4.583C3.34633 5.45567 2.842 6.58333 2.468 7.966C2.094 9.34867 1.907 11.0147 1.907 12.964C1.907 14.9247 2.094 16.5963 2.468 17.979C2.842 19.3503 3.34633 20.478 3.981 21.362C4.61567 22.2347 5.35233 22.875 6.191 23.283C7.02967 23.6797 7.91367 23.878 8.843 23.878C9.77233 23.878 10.6563 23.6797 11.495 23.283C12.345 22.875 13.0817 22.2347 13.705 21.362C14.3397 20.478 14.844 19.3503 15.218 17.979C15.592 16.5963 15.779 14.9247 15.779 12.964Z" fill="black"/>
</svg>
